<svg xmlns="http://www.w3.org/2000/svg" viewBox="655.064 401.342 609.651 83.049"><defs><style>.a{fill:#384c5c;}</style></defs><path class="a" d="M5.063,0H7.222V-60.762H5.063ZM60.969-43.828H58.811V-31.5a21.667,21.667,0,0,0-7.8-8.882,20.734,20.734,0,0,0-11.58-3.445A20.508,20.508,0,0,0,24.238-37.4,21.315,21.315,0,0,0,17.93-21.914,21.315,21.315,0,0,0,24.238-6.433,20.508,20.508,0,0,0,39.429,0a20.734,20.734,0,0,0,11.58-3.445,21.667,21.667,0,0,0,7.8-8.882V0h2.158ZM39.429-2.158A18.424,18.424,0,0,1,25.774-7.969a19.139,19.139,0,0,1-5.686-13.945A19.278,19.278,0,0,1,25.774-35.9,18.488,18.488,0,0,1,39.429-41.67a18.535,18.535,0,0,1,13.7,5.769,19.5,19.5,0,0,1,5.686,13.987A19.5,19.5,0,0,1,53.125-7.927,18.535,18.535,0,0,1,39.429-2.158ZM107-43.828h-2.158v21.956a20.928,20.928,0,0,1-4.9,13.945A14.962,14.962,0,0,1,88.154-2.158,14.962,14.962,0,0,1,76.326-7.969a20.827,20.827,0,0,1-4.9-13.945V-43.828H69.27v21.914A22.976,22.976,0,0,0,74.79-6.433,17.007,17.007,0,0,0,88.154,0a16.738,16.738,0,0,0,9.878-3.237,20.979,20.979,0,0,0,6.807-8.508V0H107Zm10.459,0H115.3V0h2.158V-21.956A20.219,20.219,0,0,1,122.644-35.9a16.343,16.343,0,0,1,12.534-5.769h1.079v-2.158h-1.079a18.3,18.3,0,0,0-10.542,3.32,20.854,20.854,0,0,0-7.18,8.674Zm48.6,0a20.508,20.508,0,0,0-15.19,6.433,21.315,21.315,0,0,0-6.309,15.481,21.315,21.315,0,0,0,6.309,15.481A20.508,20.508,0,0,0,166.057,0a20.747,20.747,0,0,0,12.368-3.984,21.172,21.172,0,0,0,7.886-10.5l-2.034-.706a19.131,19.131,0,0,1-7.1,9.421,18.62,18.62,0,0,1-11.123,3.611A18.567,18.567,0,0,1,152.734-7.6a19.335,19.335,0,0,1-5.977-13.24H187.6v-1.079A21.315,21.315,0,0,0,181.289-37.4,20.555,20.555,0,0,0,166.057-43.828Zm-19.3,20.835a19.335,19.335,0,0,1,5.977-13.24,18.567,18.567,0,0,1,13.323-5.437,18.476,18.476,0,0,1,13.323,5.437,19.26,19.26,0,0,1,6.018,13.24Zm69.021-20.835a18.115,18.115,0,0,0-10.5,3.32,21.155,21.155,0,0,0-7.222,8.674V-43.828H195.9V0h2.158V-21.914A20.181,20.181,0,0,1,203.286-35.9a16.218,16.218,0,0,1,12.493-5.769A16.385,16.385,0,0,1,228.354-35.9a20.274,20.274,0,0,1,5.188,13.987V0H235.7V-21.914A22.2,22.2,0,0,0,229.849-37.4,18.278,18.278,0,0,0,215.779-43.828Zm37.478-16.934H251.1v16.934H244v2.158h7.1V0h2.158V-41.67h7.056v-2.158h-7.056Zm27.1,13.655h-13.24V-23.7A23.442,23.442,0,0,0,274.05-6.724,22.705,22.705,0,0,0,290.818.291q7.18,0,10.417-3.694v1.66a10.5,10.5,0,0,1-3.071,7.6,9.808,9.808,0,0,1-7.346,3.154A10.113,10.113,0,0,1,284.841,7.1a10.465,10.465,0,0,1-3.9-4.98L268.53,6.765a24.035,24.035,0,0,0,8.757,11.248,23.172,23.172,0,0,0,13.53,4.275A22.545,22.545,0,0,0,307.5,15.232,23.222,23.222,0,0,0,314.475-1.66V-47.107h-13.24V-23.7a10.5,10.5,0,0,1-3.071,7.6,9.808,9.808,0,0,1-7.346,3.154A9.941,9.941,0,0,1,283.43-16.1a10.5,10.5,0,0,1-3.071-7.6Zm88.652,23.574a23.4,23.4,0,0,0-6.931-17.017,22.658,22.658,0,0,0-16.726-7.014,22.705,22.705,0,0,0-16.768,7.014,23.4,23.4,0,0,0-6.931,17.017,23.352,23.352,0,0,0,6.931,16.975A22.705,22.705,0,0,0,345.354.457,22.658,22.658,0,0,0,362.08-6.558a23.451,23.451,0,0,0,2.947-3.569l-11.621-6.6a6.258,6.258,0,0,1-.706.83,9.871,9.871,0,0,1-7.346,3.113,10.005,10.005,0,0,1-7.388-3.113,10.449,10.449,0,0,1-2.407-3.777h33.452Zm-33.12-4.731a12.394,12.394,0,0,1,2.075-2.947,10.005,10.005,0,0,1,7.388-3.113,9.871,9.871,0,0,1,7.346,3.113,12.394,12.394,0,0,1,2.075,2.947Zm61.841-19.05a20.354,20.354,0,0,0-8.923,2.034v-1.826H375.818V0h12.991V-23.782a11.235,11.235,0,0,1,2.615-7.471,8.011,8.011,0,0,1,6.309-3.071,8.011,8.011,0,0,1,6.309,3.071,11.294,11.294,0,0,1,2.615,7.512V0h12.991V-23.74a23.658,23.658,0,0,0-6.433-16.685A20.429,20.429,0,0,0,397.732-47.314Zm44.16,4.98a12.687,12.687,0,0,1,9.318,3.839,12.638,12.638,0,0,1,3.839,9.276A12.687,12.687,0,0,1,451.21-19.9a12.687,12.687,0,0,1-9.318,3.839,12.638,12.638,0,0,1-9.276-3.839,12.687,12.687,0,0,1-3.839-9.318,12.638,12.638,0,0,1,3.839-9.276A12.638,12.638,0,0,1,441.892-42.334Zm45.571-5.4A22.755,22.755,0,0,0,477-45.239v-1.868H463.723V14.07H477V-1.992A23.07,23.07,0,0,0,487.463.457,22.64,22.64,0,0,0,504.231-6.6,23.33,23.33,0,0,0,511.2-23.616a23.33,23.33,0,0,0-6.973-17.017A22.575,22.575,0,0,0,487.463-47.729Zm0,34.946a9.88,9.88,0,0,1-7.388-3.2A10.545,10.545,0,0,1,477-23.616a10.636,10.636,0,0,1,3.071-7.637,9.941,9.941,0,0,1,7.388-3.154,10.075,10.075,0,0,1,7.429,3.154,10.713,10.713,0,0,1,3.03,7.637,10.621,10.621,0,0,1-3.03,7.637A10.012,10.012,0,0,1,487.463-12.783ZM539.8-47.563a22.706,22.706,0,0,0-16.768,7.014A23.4,23.4,0,0,0,516.1-23.533a23.352,23.352,0,0,0,6.931,16.975A22.706,22.706,0,0,0,539.8.457a22.658,22.658,0,0,0,16.726-7.014,23.352,23.352,0,0,0,6.931-16.975,23.4,23.4,0,0,0-6.931-17.017A22.658,22.658,0,0,0,539.8-47.563Zm0,34.78a10.005,10.005,0,0,1-7.388-3.113,10.636,10.636,0,0,1-3.071-7.637,10.686,10.686,0,0,1,3.071-7.678,10.005,10.005,0,0,1,7.388-3.113,9.871,9.871,0,0,1,7.346,3.113,10.686,10.686,0,0,1,3.071,7.678,10.636,10.636,0,0,1-3.071,7.637A9.871,9.871,0,0,1,539.8-12.783Zm53-34.531a20.354,20.354,0,0,0-8.923,2.034v-1.826H570.886V0h12.991V-23.782a11.235,11.235,0,0,1,2.615-7.471,8.011,8.011,0,0,1,6.309-3.071,8.011,8.011,0,0,1,6.309,3.071,11.294,11.294,0,0,1,2.615,7.512V0h12.991V-23.74a23.658,23.658,0,0,0-6.433-16.685A20.429,20.429,0,0,0,592.8-47.314Z" transform="translate(650 462.104)"/></svg>